<?xml version="1.0" standalone="no"?>
<!DOCTYPE svg PUBLIC "-//W3C//DTD SVG 20010904//EN"
 "http://www.w3.org/TR/2001/REC-SVG-20010904/DTD/svg10.dtd">
<svg version="1.0" xmlns="http://www.w3.org/2000/svg"
 width="192.000000pt" height="192.000000pt" viewBox="0 0 192.000000 192.000000"
 preserveAspectRatio="xMidYMid meet">

<g transform="translate(0.000000,192.000000) scale(0.100000,-0.100000)"
fill="#000000" stroke="none">
<path d="M834 1502 c-114 -43 -202 -135 -225 -236 -10 -44 -9 -62 5 -109 16
-54 16 -60 -1 -107 -16 -45 -16 -53 -3 -77 26 -46 43 -50 101 -25 29 12 54 21
55 19 2 -2 5 -21 6 -44 2 -25 7 -39 14 -36 7 2 19 -6 28 -19 11 -15 16 -17 16
-8 1 11 5 10 18 -5 9 -11 25 -19 35 -17 9 2 17 -1 17 -6 0 -16 54 0 83 24 35
29 73 31 87 4 18 -33 30 -23 30 24 0 78 13 91 57 56 36 -28 77 -26 102 6 24
31 25 47 10 106 -10 38 -9 48 10 85 27 53 27 123 1 177 -26 55 -113 138 -180
173 -72 37 -188 43 -266 15z m276 -86 c50 -33 106 -89 123 -124 20 -38 30
-102 17 -102 -5 0 -10 11 -10 25 0 63 -82 165 -164 204 -53 26 -171 28 -244 5
-70 -23 -142 -80 -174 -139 -15 -28 -28 -43 -28 -34 0 22 48 91 85 121 105 87
298 108 395 44z m-357 -166 c19 -22 66 -27 99 -9 16 9 24 7 44 -12 29 -28 30
-42 3 -68 -11 -10 -26 -38 -34 -62 -8 -28 -18 -43 -26 -41 -8 2 -32 -6 -55
-19 -50 -27 -106 -21 -129 14 -13 20 -12 29 5 86 11 34 20 71 20 81 0 21 25
50 43 50 7 0 20 -9 30 -20z m406 -5 c16 -8 33 -27 40 -42 17 -43 32 -134 25
-157 -19 -62 -83 -77 -109 -26 -11 21 -27 32 -55 40 -30 8 -41 17 -46 36 -6
23 -8 24 -24 9 -17 -15 -19 -15 -29 3 -11 21 -4 122 9 122 4 0 13 -7 21 -16
17 -21 62 -12 101 21 35 29 31 29 67 10z m-189 -179 c26 -43 39 -136 19 -136
-8 0 -22 7 -33 15 -13 10 -24 11 -37 5 -10 -6 -25 -10 -35 -10 -14 0 -16 7
-11 36 8 48 46 124 62 124 7 0 23 -15 35 -34z"/>
<path d="M1168 1492 c-14 -6 -7 -15 34 -49 41 -35 57 -43 91 -43 43 0 95 28
117 63 11 18 10 19 -17 11 -15 -4 -50 -9 -78 -10 -27 -1 -59 -5 -69 -9 -17 -7
-18 -5 -12 18 6 25 4 27 -21 26 -16 0 -36 -3 -45 -7z"/>
<path d="M363 1072 c-12 -2 -35 -16 -52 -31 l-29 -27 14 -54 c8 -30 14 -78 14
-107 0 -30 5 -55 13 -60 6 -4 55 -8 107 -8 l95 0 120 -67 c66 -37 122 -63 123
-58 7 21 -32 63 -121 129 -114 85 -127 99 -161 183 -15 37 -33 72 -40 77 -19
16 -59 27 -83 23z"/>
<path d="M1412 1034 c-13 -9 -40 -53 -61 -98 -36 -77 -44 -88 -119 -144 -71
-55 -147 -130 -138 -139 2 -2 43 19 92 46 121 66 154 76 209 62 88 -22 105 -8
105 87 1 37 7 85 15 107 8 22 15 48 15 57 0 37 -77 51 -118 22z"/>
<path d="M736 864 c-3 -9 -2 -23 4 -32 7 -14 9 -10 10 16 0 35 -5 41 -14 16z"/>
<path d="M1110 877 c0 -3 9 -21 21 -39 17 -28 19 -29 14 -8 -7 24 -35 62 -35
47z"/>
<path d="M765 850 c-4 -12 -2 -27 3 -32 7 -7 12 -3 17 12 4 12 2 27 -3 32 -7
7 -12 3 -17 -12z"/>
<path d="M1003 853 c-19 -7 -16 -53 2 -53 10 0 15 10 15 28 1 23 2 24 11 10
12 -21 39 -24 39 -4 0 21 -37 32 -67 19z"/>
<path d="M800 831 c0 -11 5 -23 10 -26 6 -3 10 3 10 14 0 11 -4 23 -10 26 -5
3 -10 -3 -10 -14z"/>
<path d="M835 838 c-4 -10 -4 -26 0 -35 8 -17 8 -17 12 0 3 9 3 25 0 35 -4 16
-4 16 -12 0z"/>
<path d="M870 805 c0 -14 5 -25 10 -25 6 0 10 11 10 25 0 14 -4 25 -10 25 -5
0 -10 -11 -10 -25z"/>
<path d="M956 814 c-9 -22 -8 -24 9 -24 8 0 15 9 15 20 0 24 -15 27 -24 4z"/>
<path d="M910 801 c0 -11 5 -23 10 -26 6 -4 10 5 10 19 0 14 -4 26 -10 26 -5
0 -10 -9 -10 -19z"/>
<path d="M744 792 c3 -6 2 -13 -4 -17 -12 -8 -13 -35 -1 -35 8 0 11 8 20 45 1
5 -3 11 -10 14 -6 2 -9 -1 -5 -7z"/>
<path d="M1095 790 c-4 -6 -11 -8 -16 -5 -5 4 -9 -5 -9 -19 0 -14 -5 -26 -11
-26 -5 0 -7 5 -3 12 4 7 3 8 -4 4 -7 -4 -12 -15 -13 -24 0 -14 -2 -14 -8 2 -5
14 -10 16 -15 8 -11 -19 -26 -14 -26 9 0 12 -4 17 -11 14 -6 -4 -8 -14 -5 -24
5 -14 4 -13 -8 2 -17 22 -26 22 -26 -3 0 -11 -4 -20 -9 -20 -5 0 -11 9 -14 20
-3 11 -11 20 -17 20 -7 0 -10 -8 -7 -20 7 -27 -7 -25 -21 3 -6 12 -11 16 -11
9 -1 -7 -8 -20 -17 -29 -12 -13 -18 -13 -27 -3 -9 10 -9 11 1 6 14 -8 15 18 2
49 -7 17 -9 16 -10 -10 l-2 -30 -12 28 -13 29 -12 -30 c-12 -29 -10 -33 36
-94 51 -65 88 -83 118 -58 11 9 19 8 35 -3 30 -21 54 -11 93 37 36 43 77 120
77 143 0 15 -26 18 -35 3z"/>
<path d="M1000 754 c0 -8 5 -12 10 -9 6 3 10 10 10 16 0 5 -4 9 -10 9 -5 0
-10 -7 -10 -16z"/>
<path d="M700 584 c-47 -19 -107 -44 -133 -54 -33 -14 -71 -20 -127 -20 -58 0
-83 -4 -94 -16 -9 -8 -16 -18 -16 -22 0 -26 31 -175 40 -191 13 -26 44 -43 63
-35 9 3 52 50 98 105 100 120 132 146 232 192 79 36 86 44 65 65 -18 18 -34
15 -128 -24z"/>
<path d="M1022 590 l-23 -19 78 -37 c96 -45 147 -86 220 -175 31 -39 64 -74
74 -80 43 -22 73 24 86 129 8 68 -7 82 -86 82 -45 0 -75 9 -170 54 -149 68
-151 69 -179 46z"/>
</g>
</svg>
