<?xml version="1.0" standalone="no"?>
<!DOCTYPE svg PUBLIC "-//W3C//DTD SVG 20010904//EN"
 "http://www.w3.org/TR/2001/REC-SVG-20010904/DTD/svg10.dtd">
<svg version="1.0" xmlns="http://www.w3.org/2000/svg"
 width="240.000000pt" height="240.000000pt" viewBox="0 0 240.000000 240.000000"
 preserveAspectRatio="xMidYMid meet">

<g transform="translate(0.000000,240.000000) scale(0.100000,-0.100000)"
fill="#000000" stroke="none">
<path d="M866 1813 c-2 -2 -32 -6 -67 -8 -35 -2 -95 -8 -134 -13 -38 -6 -108
-11 -154 -11 -84 -2 -131 -8 -131 -19 0 -13 52 -92 61 -92 5 0 17 -16 25 -36
12 -29 13 -46 5 -86 -11 -50 -7 -73 10 -63 5 4 19 8 30 10 12 3 29 10 38 18 9
7 48 23 86 36 39 13 79 27 90 31 91 38 361 59 443 35 63 -19 96 -57 88 -99 -8
-38 -24 -53 -117 -104 -42 -23 -82 -49 -89 -57 -7 -8 -19 -15 -27 -15 -8 0
-28 -13 -45 -30 -16 -16 -33 -30 -37 -30 -4 0 -38 -29 -76 -65 -39 -36 -72
-65 -75 -65 -11 0 -80 -72 -80 -83 0 -7 -3 -22 -6 -34 -4 -13 -2 -23 4 -23 6
0 14 14 17 31 4 18 26 50 49 73 50 50 177 156 187 156 4 0 9 -7 11 -16 3 -16
115 -63 151 -64 23 0 22 22 -3 38 -24 15 -26 32 -4 32 11 0 14 7 10 31 -4 26
-2 29 12 23 9 -4 30 -9 47 -12 27 -4 29 -3 16 12 -17 20 -6 20 49 1 58 -20 60
-19 21 15 l-35 29 52 -6 c43 -5 52 -3 52 10 0 17 -49 61 -58 52 -3 -3 0 -11 6
-17 7 -7 12 -15 12 -19 0 -9 -71 10 -87 23 -16 13 -18 -5 -4 -31 8 -15 5 -16
-25 -13 -22 3 -34 0 -34 -8 0 -8 -10 -9 -30 -5 -33 7 -40 -8 -20 -46 11 -20 3
-24 -48 -19 -21 1 -20 -2 14 -33 24 -22 32 -34 21 -34 -9 0 -14 4 -11 8 2 4
-8 10 -24 13 -15 4 -40 15 -56 25 l-28 19 71 50 c39 27 101 64 138 83 37 18
76 42 86 53 24 27 22 87 -4 120 -25 31 -24 33 19 41 35 6 43 -8 15 -24 -16 -8
-15 -11 10 -20 16 -6 35 -11 43 -11 8 0 14 -7 14 -16 0 -8 -4 -13 -9 -10 -5 3
-14 -1 -21 -9 -7 -8 -11 -15 -9 -16 31 -6 69 -2 69 9 0 6 5 12 11 12 5 0 7 4
4 10 -3 6 1 7 9 4 16 -6 38 -71 38 -113 0 -14 -10 -33 -23 -44 -40 -32 -82
-72 -128 -123 -52 -57 -71 -72 -200 -157 -36 -23 -71 -46 -78 -52 -10 -7 -30
-1 -70 20 -67 37 -83 61 -32 50 26 -5 31 -4 23 5 -6 6 -31 14 -54 17 l-42 6
17 -27 18 -27 -26 7 c-23 5 -27 3 -27 -15 0 -24 -4 -25 -31 -11 -11 6 -24 8
-30 4 -13 -7 17 -43 46 -54 18 -7 18 -8 -7 -15 -30 -8 -38 -25 -13 -25 8 0 15
-4 15 -10 0 -5 9 -10 20 -10 11 0 20 -4 20 -10 0 -12 2 -12 -38 -1 -37 11 -45
-4 -9 -18 28 -11 87 -2 87 13 0 6 5 4 10 -4 8 -12 13 -13 30 -2 16 10 20 10
20 -2 0 -16 38 -66 48 -64 4 1 18 -4 32 -11 15 -9 60 -14 120 -15 l95 -1 5
-50 c5 -45 7 -47 16 -27 10 23 11 23 26 -17 20 -49 48 -48 48 2 0 29 1 30 14
12 8 -11 12 -23 10 -27 -3 -5 -1 -8 4 -8 16 0 19 22 12 75 -6 43 -8 45 -9 15
l-2 -35 -18 22 -19 22 -6 -31 -6 -31 -25 37 c-14 20 -25 39 -25 41 0 3 20 10
45 16 25 6 48 16 51 21 4 6 -1 8 -12 5 -62 -19 -116 -29 -129 -23 -9 3 -15 18
-15 41 0 19 -4 35 -10 35 -5 0 -10 -20 -10 -45 0 -35 -4 -45 -16 -45 -23 0
-43 29 -44 65 -1 17 -5 39 -10 50 -7 18 -8 19 -15 2 -7 -17 -5 -36 10 -84 10
-32 -21 -30 -85 5 -83 45 -78 65 35 150 33 24 67 52 75 61 9 9 32 24 52 35 42
21 88 63 142 129 22 27 59 62 83 78 66 46 68 55 36 167 -18 61 -29 88 -31 73
-3 -22 -7 -23 -48 -18 -57 6 -62 12 -36 40 32 34 27 40 -23 34 -44 -7 -44 -6
-35 19 15 38 13 46 -9 34 -27 -14 -29 -13 -33 12 -4 28 -34 35 -57 14 -13 -12
-20 -13 -29 -4 -9 9 -16 8 -30 -6 -16 -17 -16 -18 6 -11 19 5 22 3 22 -22 l1
-28 29 33 c35 38 40 39 40 8 0 -13 8 -27 17 -30 15 -6 15 -9 -4 -27 -18 -18
-24 -19 -59 -9 -52 15 -258 8 -354 -13 -107 -24 -165 -44 -254 -89 -43 -21
-80 -37 -83 -34 -3 3 4 28 16 55 23 55 19 82 -19 116 -12 11 -31 33 -42 48
l-20 28 95 -3 c52 -2 93 0 91 4 -3 5 3 9 13 10 50 4 143 17 193 26 25 4 90 6
145 4 55 -2 115 -4 133 -5 17 0 32 -4 32 -8 0 -4 10 -6 23 -6 12 1 47 -2 77
-5 53 -6 52 -6 -20 13 -41 10 -88 18 -105 17 -16 0 -37 2 -45 5 -18 7 -178 15
-184 10z m97 -765 c33 -3 34 -11 5 -40 -23 -23 -48 -25 -118 -9 l-35 8 33 13
c31 11 32 13 15 27 -16 12 -13 13 27 8 25 -3 57 -6 73 -7z"/>
<path d="M880 1760 c-13 -24 -27 -26 -32 -5 -2 11 -12 6 -36 -18 -18 -17 -39
-41 -47 -52 -13 -19 -14 -18 -15 18 0 43 -11 47 -30 12 -15 -28 -30 -33 -30
-10 0 27 -20 16 -35 -21 l-15 -37 -21 28 c-17 20 -24 24 -30 13 -5 -7 -9 -10
-10 -5 -9 45 -20 56 -46 46 -13 -5 -36 -9 -49 -9 -14 0 -22 -4 -19 -10 3 -5
24 -10 45 -10 35 0 39 -3 46 -32 4 -18 6 -43 5 -55 -4 -34 16 -28 24 7 6 27
35 44 35 20 0 -16 27 -12 34 5 8 22 26 18 26 -5 0 -28 18 -25 26 5 8 31 20 32
27 3 6 -21 7 -21 29 8 12 16 31 37 42 47 20 17 21 17 27 0 3 -10 4 -24 2 -30
-3 -7 0 -13 6 -13 6 0 11 4 11 10 0 5 8 19 17 30 10 11 18 26 19 33 0 6 2 17
2 24 1 6 15 10 31 9 17 -1 28 2 25 6 -10 16 -53 8 -64 -12z"/>
<path d="M365 1627 c-57 -18 -133 -58 -156 -83 -32 -34 -18 -40 21 -8 32 27
157 77 170 69 4 -3 13 1 19 9 15 18 -14 25 -54 13z"/>
<path d="M1934 1183 c-10 -7 -25 -13 -35 -13 -9 0 -36 -17 -60 -39 -24 -21
-65 -52 -91 -68 -26 -17 -46 -32 -44 -34 3 -2 -8 -5 -24 -6 -27 -2 -28 -1 -19
30 11 39 11 37 -1 37 -5 0 -15 -18 -21 -40 -10 -32 -20 -44 -54 -60 -23 -11
-46 -20 -53 -20 -14 0 -34 -35 -25 -44 3 -3 0 -7 -8 -8 -31 -3 -34 -4 -46 -11
-21 -13 17 -87 45 -87 5 0 15 7 22 15 12 14 15 14 31 -1 18 -16 18 -17 -4 -29
-12 -6 -48 -26 -80 -43 -31 -18 -62 -32 -67 -32 -5 0 -21 -5 -37 -12 -32 -13
-47 -16 -86 -21 -15 -2 -30 -6 -33 -10 -3 -3 -12 -3 -20 0 -8 3 -14 1 -14 -3
0 -16 -112 -22 -172 -9 -23 4 -38 3 -38 -2 0 -5 6 -10 13 -10 6 -1 45 -4 85
-8 75 -8 152 7 152 29 0 7 4 6 8 -2 7 -9 21 -8 67 8 32 11 66 20 76 20 10 0
24 6 31 13 7 7 33 21 58 31 53 21 58 23 135 66 l60 32 -60 -54 c-33 -30 -76
-69 -95 -86 -24 -21 -30 -32 -19 -32 9 0 27 10 41 23 13 12 44 38 69 58 58 48
330 318 363 362 14 18 26 44 26 56 0 17 -5 21 -29 19 -16 -1 -37 -8 -47 -15z
m56 -18 c0 -9 -162 -180 -174 -183 -6 -2 -4 1 4 7 8 5 12 13 8 16 -3 3 -22
-14 -43 -39 -20 -25 -58 -57 -83 -72 -26 -15 -57 -34 -69 -42 -23 -14 -23 -14
-23 32 0 26 4 45 9 42 4 -3 13 6 19 19 6 13 26 32 44 41 18 9 49 30 69 45 20
16 40 29 43 29 3 0 17 10 32 23 51 44 119 86 142 87 12 0 22 -2 22 -5z m-450
-225 c0 -5 -4 -10 -10 -10 -5 0 -10 5 -10 10 0 6 5 10 10 10 6 0 10 -4 10 -10z
m38 1 c15 -9 14 -91 -2 -91 -5 0 -20 10 -33 22 l-24 22 -6 -22 c-7 -27 -21
-28 -39 -4 -20 26 -18 28 34 42 61 17 67 21 51 31 -8 5 -9 9 -4 9 6 0 16 -4
23 -9z"/>
<path d="M580 1153 c1 -32 43 -167 56 -181 18 -17 59 -102 56 -113 -2 -8 114
-122 122 -120 3 1 19 -5 36 -14 52 -27 46 -16 -10 18 -39 23 -64 48 -86 85
-17 28 -33 50 -35 48 -2 -3 -3 26 -2 62 2 60 1 64 -9 35 -12 -36 -25 -42 -35
-15 -3 9 -11 24 -18 32 -14 18 -41 92 -50 138 -4 17 -11 32 -16 32 -5 0 -9 -3
-9 -7z"/>
<path d="M2055 1093 c-43 -51 -83 -102 -130 -169 -16 -23 -47 -61 -67 -83 -21
-22 -38 -47 -38 -56 0 -8 -7 -15 -15 -15 -8 0 -15 -4 -15 -10 0 -21 20 -9 47
28 15 20 41 53 58 74 81 98 113 135 142 167 33 36 33 36 19 6 -8 -16 -22 -55
-30 -85 -25 -86 6 -42 38 53 14 43 32 88 41 100 39 56 0 48 -50 -10z"/>
<path d="M2215 1050 c-3 -5 -1 -10 4 -10 6 0 11 5 11 10 0 6 -2 10 -4 10 -3 0
-8 -4 -11 -10z"/>
<path d="M2172 1005 c-11 -14 -51 -46 -89 -72 -37 -26 -74 -53 -81 -59 -10
-11 -97 -81 -111 -91 -2 -2 -2 -6 1 -9 8 -8 42 11 75 42 36 34 72 58 78 52 3
-2 -12 -29 -32 -59 -38 -58 -65 -126 -39 -99 8 8 24 32 35 53 21 37 90 130
143 191 39 45 34 17 -6 -36 -19 -25 -51 -77 -72 -117 -20 -39 -39 -71 -43 -71
-4 0 -7 -10 -8 -22 -1 -11 -8 -25 -15 -29 -7 -4 -10 -11 -6 -14 8 -8 25 16 95
135 31 52 74 118 95 146 41 55 47 69 22 60 -12 -4 -15 -2 -10 9 9 24 -11 18
-32 -10z"/>
<path d="M400 965 c0 -36 41 -112 67 -124 20 -9 19 -5 -12 53 -19 34 -35 70
-35 79 0 9 -4 17 -10 17 -5 0 -10 -11 -10 -25z"/>
<path d="M2268 908 c-63 -62 -83 -91 -79 -115 1 -7 -3 -22 -9 -34 -10 -18 -9
-19 7 -11 10 6 29 22 42 36 13 14 28 23 32 20 5 -3 9 -2 9 3 0 4 25 19 55 32
30 14 52 28 49 32 -7 12 -102 -28 -137 -57 -16 -14 -32 -23 -34 -20 -8 7 33
53 110 124 51 46 55 52 33 52 -7 0 -43 -28 -78 -62z"/>
<path d="M1470 950 c-14 -4 -41 -15 -60 -24 l-35 -16 38 4 c33 3 87 29 87 41
0 3 -1 5 -2 4 -2 0 -14 -4 -28 -9z"/>
<path d="M110 941 c0 -29 185 -179 260 -212 14 -5 46 -24 71 -40 26 -16 55
-31 65 -33 11 -3 32 -9 47 -15 49 -19 54 -11 7 11 -117 55 -184 89 -190 98 -3
4 -16 13 -29 19 -12 7 -70 51 -127 97 -57 46 -104 80 -104 75z"/>
<path d="M583 880 c3 -35 1 -60 -4 -60 -6 0 -24 23 -41 50 -29 47 -57 69 -44
34 3 -9 6 -19 6 -24 0 -13 61 -75 87 -88 12 -7 25 -26 28 -44 4 -18 16 -44 26
-57 23 -28 24 -22 5 24 -8 19 -17 49 -20 67 -3 18 -12 59 -20 90 -7 32 -11 60
-8 63 3 3 -1 5 -8 5 -10 0 -11 -15 -7 -60z"/>
<path d="M148 844 c-4 -3 11 -29 32 -57 22 -28 38 -53 36 -55 -2 -2 -27 9 -56
23 -56 29 -80 25 -40 -6 27 -20 82 -39 117 -39 12 0 26 -6 30 -14 4 -8 22 -17
38 -20 l30 -5 -23 17 c-36 26 -73 63 -117 115 -23 26 -44 45 -47 41z"/>
<path d="M390 819 c0 -32 160 -137 192 -127 6 2 -5 12 -26 22 -20 9 -66 39
-101 66 -36 27 -65 45 -65 39z"/>
<path d="M907 813 c-20 -8 -34 -19 -31 -24 3 -5 14 -4 25 2 34 18 51 4 44 -35
-9 -47 8 -52 39 -11 29 38 46 45 46 19 0 -22 24 -11 28 13 2 16 -3 20 -30 21
-18 0 -38 -4 -46 -10 -7 -6 -12 -7 -11 -2 7 38 -14 46 -64 27z"/>
<path d="M1722 799 c-9 -12 -30 -37 -46 -56 -16 -18 -25 -37 -21 -41 9 -9 81
71 88 98 7 26 1 25 -21 -1z"/>
<path d="M1131 790 c-8 -4 -16 -17 -17 -26 -2 -10 -10 -24 -18 -30 -9 -6 -16
-16 -16 -23 0 -20 19 -12 42 19 15 20 25 27 32 20 16 -16 36 -11 36 9 0 10 -8
25 -17 32 -11 10 -14 10 -9 2 4 -7 3 -13 -3 -13 -5 0 -11 4 -13 10 -2 6 -9 6
-17 0z"/>
<path d="M670 761 c0 -11 153 -109 173 -111 14 0 7 21 -10 27 -10 4 -31 16
-48 27 -65 43 -81 53 -97 59 -10 3 -18 3 -18 -2z"/>
<path d="M1756 705 c-9 -19 -21 -35 -25 -35 -5 0 -12 -8 -15 -17 -4 -10 13 2
38 27 48 48 55 60 32 60 -7 0 -21 -16 -30 -35z"/>
<path d="M930 690 c0 -5 4 -10 9 -10 5 0 18 -3 28 -6 16 -5 16 -4 -1 10 -23
18 -36 20 -36 6z"/>
<path d="M30 641 c0 -6 3 -11 8 -12 4 0 16 -2 27 -4 109 -21 133 -24 150 -18
20 7 4 12 -95 28 -19 3 -47 8 -62 11 -17 3 -28 1 -28 -5z"/>
</g>
</svg>
