<?xml version="1.0" standalone="no"?>
<!DOCTYPE svg PUBLIC "-//W3C//DTD SVG 20010904//EN"
 "http://www.w3.org/TR/2001/REC-SVG-20010904/DTD/svg10.dtd">
<svg version="1.0" xmlns="http://www.w3.org/2000/svg"
 width="240.000000pt" height="240.000000pt" viewBox="0 0 240.000000 240.000000"
 preserveAspectRatio="xMidYMid meet">

<g transform="translate(0.000000,240.000000) scale(0.100000,-0.100000)"
fill="#000000" stroke="none">
<path d="M116 2114 c-11 -29 23 -151 71 -252 71 -151 236 -285 414 -338 27 -8
50 -18 53 -23 3 -5 -16 -44 -42 -88 -27 -44 -59 -113 -73 -154 -22 -67 -24
-90 -24 -249 1 -167 2 -178 28 -244 81 -206 231 -363 402 -423 127 -45 149
-48 285 -47 120 0 144 4 215 28 108 38 169 71 239 131 119 101 198 239 236
415 13 62 9 255 -8 336 -14 67 -56 167 -98 230 -19 28 -34 56 -34 61 0 6 21
16 48 23 167 46 307 152 400 302 71 115 118 298 77 298 -8 0 -15 -4 -15 -9 0
-6 -24 -36 -54 -68 -40 -44 -77 -70 -143 -103 -125 -62 -168 -76 -328 -102
-115 -19 -976 -18 -1095 1 -206 33 -340 87 -440 179 -38 35 -72 71 -75 82 -8
24 -32 33 -39 14z m1215 -700 c100 -30 189 -114 230 -216 86 -216 7 -459 -179
-550 -61 -30 -74 -33 -162 -33 -83 1 -103 4 -158 29 -197 90 -278 368 -171
581 35 69 56 94 119 140 84 62 211 81 321 49z"/>
</g>
</svg>
